<svg width="420" height="120" viewBox="0 0 420 120" fill="none" xmlns="http://www.w3.org/2000/svg" role="img" aria-labelledby="logoTitle logoDesc">
  <title id="logoTitle">Logo RGAA Vitrine</title>
  <desc id="logoDesc">Logo inspire des codes visuels institutionnels francais avec symbole tricolore et signature RGAA Vitrine.</desc>

  <defs>
    <linearGradient id="accentGrad" x1="130" y1="92" x2="408" y2="92" gradientUnits="userSpaceOnUse">
      <stop offset="0" stop-color="#E1000F" />
      <stop offset="0.5" stop-color="#6A6AF4" />
      <stop offset="1" stop-color="#009081" />
    </linearGradient>
  </defs>

  <rect x="0" y="0" width="420" height="120" rx="18" fill="#FFFFFF" />

  <g transform="translate(14 14)">
    <rect x="0" y="0" width="92" height="92" rx="20" fill="#F5F5FE" stroke="#DADADA" />

    <rect x="18" y="16" width="56" height="34" rx="8" fill="#FFFFFF" stroke="#DADADA" />
    <rect x="22" y="20" width="16" height="26" rx="3" fill="#000091" />
    <rect x="38" y="20" width="20" height="26" rx="3" fill="#FFFFFF" stroke="#DADADA" />
    <rect x="58" y="20" width="12" height="26" rx="3" fill="#E1000F" />

    <circle cx="46" cy="64" r="16" fill="#FFFFFF" stroke="#DADADA" />
    <path d="M38 64.5L44 70L55 58" stroke="#18753C" stroke-width="4" stroke-linecap="round" stroke-linejoin="round" />
    <circle cx="63" cy="31" r="5" fill="#6A6AF4" />
  </g>

  <g transform="translate(126 24)">
    <text x="0" y="34" fill="#161616" font-size="34" font-family="Marianne, Segoe UI, Arial, sans-serif" font-weight="700" letter-spacing="0.2">RGAA Vitrine</text>
    <text x="0" y="61" fill="#3A3A3A" font-size="15" font-family="Marianne, Segoe UI, Arial, sans-serif" font-weight="500">Accessibilite numerique avec fierte</text>
    <rect x="0" y="70" width="282" height="8" rx="4" fill="url(#accentGrad)" />
  </g>
</svg>
