<svg
  width="256"
  height="256"
  viewBox="0 0 256 256"
  fill="none"
  xmlns="http://www.w3.org/2000/svg"
  role="img"
  aria-labelledby="logoTitle logoDesc"
>
  <title id="logoTitle">Icône Annuaire RGAA</title>
  <desc id="logoDesc">
    Icône de vitrine tricolore avec un badge de validation pour symboliser la conformité d’un site.
  </desc>

  <defs>
    <linearGradient id="surface" x1="20" y1="20" x2="236" y2="236" gradientUnits="userSpaceOnUse">
      <stop offset="0" stop-color="#FFFFFF" />
      <stop offset="1" stop-color="#E9F1FF" />
    </linearGradient>
    <linearGradient id="frame" x1="28" y1="28" x2="228" y2="228" gradientUnits="userSpaceOnUse">
      <stop offset="0" stop-color="#EEF4FF" />
      <stop offset="1" stop-color="#D8E5FF" />
    </linearGradient>
    <filter id="shadow" x="6" y="8" width="244" height="244" filterUnits="userSpaceOnUse" color-interpolation-filters="sRGB">
      <feFlood flood-opacity="0" result="BackgroundImageFix" />
      <feColorMatrix in="SourceAlpha" type="matrix" values="0 0 0 0 0 0 0 0 0 0 0 0 0 0 0 0 0 0 127 0" result="hardAlpha" />
      <feOffset dy="4" />
      <feGaussianBlur stdDeviation="5" />
      <feComposite in2="hardAlpha" operator="out" />
      <feColorMatrix type="matrix" values="0 0 0 0 0.04 0 0 0 0 0.08 0 0 0 0 0.17 0 0 0 0.18 0" />
      <feBlend mode="normal" in2="BackgroundImageFix" result="effect1_dropShadow_1_1" />
      <feBlend mode="normal" in="SourceGraphic" in2="effect1_dropShadow_1_1" result="shape" />
    </filter>
  </defs>

  <g filter="url(#shadow)">
    <rect x="16" y="16" width="224" height="224" rx="36" fill="url(#surface)" stroke="#C8D6EE" />
    <rect x="28" y="28" width="200" height="200" rx="30" fill="url(#frame)" stroke="#B7C8E6" />

    <rect x="56" y="52" width="144" height="26" rx="9" fill="#000091" />
    <circle cx="74" cy="65" r="5" fill="#FFFFFF" />
    <circle cx="91" cy="65" r="5" fill="#FFFFFF" />
    <circle cx="108" cy="65" r="5" fill="#FFFFFF" />

    <rect x="56" y="88" width="144" height="78" rx="14" fill="#FFFFFF" stroke="#C5D3EB" />
    <rect x="68" y="100" width="31" height="54" rx="7" fill="#000091" />
    <rect x="99" y="100" width="54" height="54" rx="7" fill="#FFFFFF" stroke="#CAD6EC" />
    <rect x="153" y="100" width="35" height="54" rx="7" fill="#E1000F" />

    <circle cx="176" cy="176" r="28" fill="#FFFFFF" stroke="#BFD1EA" />
    <path d="M162 176L172 186L191 167" stroke="#18753C" stroke-width="6.5" stroke-linecap="round" stroke-linejoin="round" />
  </g>
</svg>
